# xmcd CD database file
#
# Track frame offsets:
#	150
#	22989
#	49368
#	75271
#	104865
#	131037
#	155624
#	178357
#	206815
#	229950
#	253423
#	282507
#	306701
#	321898
#
# Disc length: 4645 seconds
#
# Revision: 1
# Processed by: cddbd v1.5.2PL0 Copyright (c) Steve Scherf et al.
# Submitted via: CDex 1.70beta2
#
DISCID=df12230e
DTITLE=John Mathieson - Adults Only
DYEAR=2005
DGENRE=Jazz
TTITLE0=Biskit or The Baskit
TTITLE1=Cool Mama
TTITLE2=Slots @ the Trac
TTITLE3=Sext Sam
TTITLE4=Nice and Naughty
TTITLE5=I Want More
TTITLE6=Charm
TTITLE7=Lit'l Bite
TTITLE8=That Dennis Elder Smile
TTITLE9=Alicia
TTITLE10=Zap Zap Zap
TTITLE11=Gunn Street Gal
TTITLE12=Kid Bastien Boogie
TTITLE13=(Sand) in My Shoe
EXTD=YEAR: 2005
EXTT0=
EXTT1=
EXTT2=
EXTT3=
EXTT4=
EXTT5=
EXTT6=
EXTT7=
EXTT8=
EXTT9=
EXTT10=
EXTT11=
EXTT12=
EXTT13=
PLAYORDER=
